<?xml version="1.0" encoding="UTF-8" standalone="no"?>
<!-- Generator: Adobe Illustrator 23.0.3, SVG Export Plug-In . SVG Version: 6.00 Build 0)  -->

<svg
   xmlns:dc="http://purl.org/dc/elements/1.1/"
   xmlns:cc="http://creativecommons.org/ns#"
   xmlns:rdf="http://www.w3.org/1999/02/22-rdf-syntax-ns#"
   xmlns:svg="http://www.w3.org/2000/svg"
   xmlns="http://www.w3.org/2000/svg"
   xmlns:sodipodi="http://sodipodi.sourceforge.net/DTD/sodipodi-0.dtd"
   xmlns:inkscape="http://www.inkscape.org/namespaces/inkscape"
   version="1.1"
   id="Capa_1"
   x="0px"
   y="0px"
   viewBox="0 0 99.199994 111.86529"
   xml:space="preserve"
   sodipodi:docname="bread.svg"
   inkscape:version="0.92.4 (5da689c313, 2019-01-14)"
   width="99.199997"
   height="111.86529"><metadata
   id="metadata4703"><rdf:RDF><cc:Work
       rdf:about=""><dc:format>image/svg+xml</dc:format><dc:type
         rdf:resource="http://purl.org/dc/dcmitype/StillImage" /><dc:title></dc:title></cc:Work></rdf:RDF></metadata><defs
   id="defs4701">
	
	
</defs><sodipodi:namedview
   pagecolor="#ffffff"
   bordercolor="#666666"
   borderopacity="1"
   objecttolerance="10"
   gridtolerance="10"
   guidetolerance="10"
   inkscape:pageopacity="0"
   inkscape:pageshadow="2"
   inkscape:window-width="1920"
   inkscape:window-height="1001"
   id="namedview4699"
   showgrid="false"
   inkscape:zoom="0.5374181"
   inkscape:cx="80.151438"
   inkscape:cy="147.43403"
   inkscape:window-x="-9"
   inkscape:window-y="-9"
   inkscape:window-maximized="1"
   inkscape:current-layer="Capa_1"
   inkscape:snap-text-baseline="true" />
<style
   type="text/css"
   id="style4209">
	.st0{fill:url(#SVGID_1_);}
	.st1{fill:#282829;}
</style>























<g
   id="g3913"
   transform="translate(-198.87952,-555.03787)"><path
     class="st1"
     d="m 282.57952,623.10316 c 2.5,9.3 -1,17.6 -1,17.6 -0.3,-12.4 -6.5,-19 -9.2,-21.4 -6.1,-1.7 -12.9,-2.8 -20.2,-3.1 5.4,10.9 0.7,22 0.7,22 -0.4,-13.5 -7.6,-20.2 -9.8,-22 -6.9,0.4 -13.4,1.5 -19.2,3.2 4.8,10.6 0.4,21.3 0.4,21.3 -0.3,-9.5 -3.9,-15.6 -6.8,-19 -11.3,4.7 -18.6,11.8 -18.6,19.8 0,14 22.2,25.4 49.6,25.4 27.4,0 49.6,-11.4 49.6,-25.4 -0.1,-7.2 -6,-13.8 -15.5,-18.4 z"
     id="path4548"
     inkscape:connector-curvature="0"
     style="fill:#282829" /><g
     transform="translate(148.67952,-267.09684)"
     id="g4556">
		<path
   class="st1"
   d="m 119.5,832.6 c 4.1,4.5 2.1,10.2 -0.4,15.2 -1.5,3 -3.8,6.2 -4.1,9.9 -0.4,5.5 5.9,8.1 8.7,9.4 1.3,0.6 -0.9,4.6 -2.1,4.1 -5.7,-2.5 -11.3,-6.3 -8.7,-15.1 1.8,-6.1 11.7,-16.6 6.1,-22.6 -0.9,-1 -0.5,-2 0.5,-0.9 z"
   id="path4550"
   inkscape:connector-curvature="0"
   style="fill:#282829" />
		<path
   class="st1"
   d="m 82.5,828.6 c 4.1,4.5 2.1,10.2 -0.4,15.2 -1.5,3 -3.8,6.2 -4.1,9.9 -0.4,5.5 5.9,8.1 8.7,9.4 1.3,0.6 -0.9,4.6 -2.1,4.1 -5.7,-2.5 -11.3,-6.3 -8.7,-15.1 1.8,-6.1 11.7,-16.6 6.1,-22.6 -0.8,-1.1 -0.5,-2 0.5,-0.9 z"
   id="path4552"
   inkscape:connector-curvature="0"
   style="fill:#282829" />
		<path
   class="st1"
   d="m 99.8,822.8 c 4.6,6.2 2.3,14.2 -0.4,21.1 -1.7,4.3 -4.2,8.6 -4.5,13.9 -0.5,7.7 6.5,11.3 9.7,13.1 1.5,0.8 -1,6.5 -2.3,5.8 -6.3,-3.5 -12.5,-8.8 -9.6,-21.1 2,-8.5 12.9,-23.1 6.8,-31.5 -1.2,-1.5 -0.8,-2.8 0.3,-1.3 z"
   id="path4554"
   inkscape:connector-curvature="0"
   style="fill:#282829" />
	</g></g>















</svg>