<?xml version="1.0" encoding="UTF-8" standalone="no"?>
<!-- Generator: Adobe Illustrator 23.0.3, SVG Export Plug-In . SVG Version: 6.00 Build 0)  -->

<svg
   xmlns:dc="http://purl.org/dc/elements/1.1/"
   xmlns:cc="http://creativecommons.org/ns#"
   xmlns:rdf="http://www.w3.org/1999/02/22-rdf-syntax-ns#"
   xmlns:svg="http://www.w3.org/2000/svg"
   xmlns="http://www.w3.org/2000/svg"
   xmlns:sodipodi="http://sodipodi.sourceforge.net/DTD/sodipodi-0.dtd"
   xmlns:inkscape="http://www.inkscape.org/namespaces/inkscape"
   version="1.1"
   id="Capa_1"
   x="0px"
   y="0px"
   viewBox="0 0 75.187666 87.800669"
   xml:space="preserve"
   sodipodi:docname="icon-desserts.svg"
   inkscape:version="0.92.4 (5da689c313, 2019-01-14)"
   width="75.187668"
   height="87.800667"><metadata
   id="metadata4703"><rdf:RDF><cc:Work
       rdf:about=""><dc:format>image/svg+xml</dc:format><dc:type
         rdf:resource="http://purl.org/dc/dcmitype/StillImage" /><dc:title></dc:title></cc:Work></rdf:RDF></metadata><defs
   id="defs4701">
	
	
</defs><sodipodi:namedview
   pagecolor="#ffffff"
   bordercolor="#666666"
   borderopacity="1"
   objecttolerance="10"
   gridtolerance="10"
   guidetolerance="10"
   inkscape:pageopacity="0"
   inkscape:pageshadow="2"
   inkscape:window-width="1920"
   inkscape:window-height="1001"
   id="namedview4699"
   showgrid="false"
   inkscape:zoom="0.5374181"
   inkscape:cx="-214.91107"
   inkscape:cy="254.64171"
   inkscape:window-x="-9"
   inkscape:window-y="-9"
   inkscape:window-maximized="1"
   inkscape:current-layer="Capa_1"
   inkscape:snap-text-baseline="true" />
<style
   type="text/css"
   id="style4209">
	.st0{fill:url(#SVGID_1_);}
	.st1{fill:#282829;}
</style>

































<g
   id="g4650"
   transform="translate(-339.7,-834.19933)">
	<path
   class="st1"
   d="m 412.8,839.9 -3.4,-3.5 c -2.8,-2.9 -7.4,-2.9 -10.2,-0.2 l -15.9,16.3 c 1.4,1.2 2.6,2.6 3.6,4.2 1.1,-0.2 2.2,-0.3 3.3,-0.3 4.3,0 8.2,1.4 11.5,3.7 l 11,-10 c 2.9,-2.8 2.9,-7.3 0.1,-10.2 z"
   id="path4644"
   inkscape:connector-curvature="0"
   style="fill:#282829" />
	<path
   class="st1"
   d="m 388.8,858.7 c -0.9,0 -1.9,0.1 -2.8,0.3 -2.9,-4.5 -7.9,-7.5 -13.7,-7.5 -5.8,0 -10.8,3 -13.7,7.5 -0.8,-0.1 -1.7,-0.2 -2.6,-0.2 -9,0 -16.3,7.3 -16.3,16.3 0,3.8 1.3,7.2 3.4,10 h 58.4 c 2.1,-2.8 3.4,-6.2 3.4,-10 0.2,-9.1 -7.1,-16.4 -16.1,-16.4 z"
   id="path4646"
   inkscape:connector-curvature="0"
   style="fill:#282829" />
	<path
   class="st1"
   d="m 349.8,910.4 c 0.9,5.2 5.2,11.6 11.6,11.6 h 21.3 c 6.4,0 10.1,-6.4 11.6,-11.6 l 5.2,-21.3 h -54.2 z"
   id="path4648"
   inkscape:connector-curvature="0"
   style="fill:#282829" />
</g>





</svg>