<?xml version="1.0" encoding="UTF-8" standalone="no"?>
<!-- Generator: Adobe Illustrator 23.0.3, SVG Export Plug-In . SVG Version: 6.00 Build 0)  -->

<svg
   xmlns:dc="http://purl.org/dc/elements/1.1/"
   xmlns:cc="http://creativecommons.org/ns#"
   xmlns:rdf="http://www.w3.org/1999/02/22-rdf-syntax-ns#"
   xmlns:svg="http://www.w3.org/2000/svg"
   xmlns="http://www.w3.org/2000/svg"
   xmlns:sodipodi="http://sodipodi.sourceforge.net/DTD/sodipodi-0.dtd"
   xmlns:inkscape="http://www.inkscape.org/namespaces/inkscape"
   version="1.1"
   id="Capa_1"
   x="0px"
   y="0px"
   viewBox="0 0 83.599996 67.199999"
   xml:space="preserve"
   sodipodi:docname="icon-maincourses.svg"
   inkscape:version="0.92.4 (5da689c313, 2019-01-14)"
   width="83.599998"
   height="67.199997"><metadata
   id="metadata4703"><rdf:RDF><cc:Work
       rdf:about=""><dc:format>image/svg+xml</dc:format><dc:type
         rdf:resource="http://purl.org/dc/dcmitype/StillImage" /><dc:title></dc:title></cc:Work></rdf:RDF></metadata><defs
   id="defs4701">
	
	
</defs><sodipodi:namedview
   pagecolor="#ffffff"
   bordercolor="#666666"
   borderopacity="1"
   objecttolerance="10"
   gridtolerance="10"
   guidetolerance="10"
   inkscape:pageopacity="0"
   inkscape:pageshadow="2"
   inkscape:window-width="1920"
   inkscape:window-height="1001"
   id="namedview4699"
   showgrid="false"
   inkscape:zoom="0.5374181"
   inkscape:cx="310.07159"
   inkscape:cy="-118.31264"
   inkscape:window-x="-9"
   inkscape:window-y="-9"
   inkscape:window-maximized="1"
   inkscape:current-layer="Capa_1"
   inkscape:snap-text-baseline="true" />
<style
   type="text/css"
   id="style4209">
	.st0{fill:url(#SVGID_1_);}
	.st1{fill:#282829;}
</style>











<g
   id="g4430"
   transform="translate(-197.6,-844.5)">
	<path
   class="st1"
   d="m 199.9,898.7 h 0.2 v 2.7 h 78.6 v -2.7 h 0.2 c 1.3,0 2.3,-1 2.3,-2.3 0,-1.3 -1,-2.3 -2.3,-2.3 h -0.1 C 277.4,875 262.6,858 243.7,855.7 c -0.4,-1.1 -1.2,-2.1 -2.2,-2.6 1.5,-0.8 2.5,-2.3 2.5,-4 0,-2.5 -2,-4.6 -4.6,-4.6 -2.5,0 -4.6,2 -4.6,4.6 0,1.8 1,3.3 2.5,4 -1,0.5 -1.9,1.5 -2.2,2.6 -18.8,2.3 -33.7,19.4 -35.1,38.4 h -0.1 c -1.3,0 -2.3,1 -2.3,2.3 0,1.3 1,2.3 2.3,2.3 z"
   id="path4426"
   inkscape:connector-curvature="0"
   style="fill:#282829" />
	<path
   class="st1"
   d="m 278.9,904.4 h -79 c -1.3,0 -2.3,1 -2.3,2.3 0,1.3 1,2.3 2.3,2.3 h 0.2 v 2.7 h 78.6 V 909 h 0.2 c 1.3,0 2.3,-1 2.3,-2.3 0,-1.2 -1,-2.3 -2.3,-2.3 z"
   id="path4428"
   inkscape:connector-curvature="0"
   style="fill:#282829" />
</g>



























</svg>