<?xml version="1.0" encoding="UTF-8" standalone="no"?>
<!-- Generator: Adobe Illustrator 23.0.3, SVG Export Plug-In . SVG Version: 6.00 Build 0)  -->

<svg
   xmlns:dc="http://purl.org/dc/elements/1.1/"
   xmlns:cc="http://creativecommons.org/ns#"
   xmlns:rdf="http://www.w3.org/1999/02/22-rdf-syntax-ns#"
   xmlns:svg="http://www.w3.org/2000/svg"
   xmlns="http://www.w3.org/2000/svg"
   xmlns:sodipodi="http://sodipodi.sourceforge.net/DTD/sodipodi-0.dtd"
   xmlns:inkscape="http://www.inkscape.org/namespaces/inkscape"
   version="1.1"
   id="Capa_1"
   x="0px"
   y="0px"
   viewBox="0 0 73.691641 94.49164"
   xml:space="preserve"
   sodipodi:docname="icon-starters.svg"
   inkscape:version="0.92.4 (5da689c313, 2019-01-14)"
   width="73.691643"
   height="94.491638"><metadata
   id="metadata4703"><rdf:RDF><cc:Work
       rdf:about=""><dc:format>image/svg+xml</dc:format><dc:type
         rdf:resource="http://purl.org/dc/dcmitype/StillImage" /><dc:title></dc:title></cc:Work></rdf:RDF></metadata><defs
   id="defs4701">
	
	
</defs><sodipodi:namedview
   pagecolor="#ffffff"
   bordercolor="#666666"
   borderopacity="1"
   objecttolerance="10"
   gridtolerance="10"
   guidetolerance="10"
   inkscape:pageopacity="0"
   inkscape:pageshadow="2"
   inkscape:window-width="1920"
   inkscape:window-height="1001"
   id="namedview4699"
   showgrid="false"
   inkscape:zoom="0.5374181"
   inkscape:cx="-182.59639"
   inkscape:cy="-186.796"
   inkscape:window-x="-9"
   inkscape:window-y="-9"
   inkscape:window-maximized="1"
   inkscape:current-layer="Capa_1"
   inkscape:snap-text-baseline="true" />
<style
   type="text/css"
   id="style4209">
	.st0{fill:url(#SVGID_1_);}
	.st1{fill:#282829;}
</style>



























<path
   class="st1"
   d="m 31.5125,75.979139 c 1.6,-5.3 0.2,-11.3 -4.1,-15.2 l 2.3,-3.1 8,6.1 4.7,-6.2 -8,-6.1 2.9,-3.9 9.9,7.5 c 1.6,-5.3 0.2,-11.3 -4.1,-15.2 l 2.1,-2.8 3.6,2.7 c 2.5,1.9 6.1,1.4 8,-1.1 l 0.5,-0.7 c 1.9,-2.5 1.4,-6.1 -1.1,-8 l -3.6,-2.7 7.9,-10.4 c 0.1,-0.1 0.2,-0.3 0.2,-0.4 3.7,2 8.5,1.1 11.2,-2.4 2.9,-3.9 2.2,-9.3999999 -1.7,-12.2999999 -3.9,-2.9 -9.4,-2.2 -12.3,1.7 -2.7,3.5 -2.3,8.2999999 0.7,11.3999999 -0.1,0.1 -0.2,0.2 -0.3,0.3 l -7.9,10.4 -3.6,-2.7 c -2.5,-1.9 -6.1,-1.4 -8,1.1 l -0.5,0.7 c -1.9,2.5 -1.4,6.1 1.1,8 l 3.6,2.7 -2.1,2.8 c -4.9,-3 -11,-2.8 -15.7,0.2 l 9.9,7.5 -2.9,3.9 -8,-6.1 -4.7,6.2 8,6.1 -2.3,3.1 c -4.9,-3 -11,-2.8 -15.7,0.2 l 9.9,7.5 -2.9,3.9 -3.6,-2.7 c -2.5,-1.9 -6.1,-1.4 -8,1.1 l -0.5,0.7 c -1.9,2.5 -1.4,6.1 1.1,8 l 3.6,2.7 -8.8,11.7 c -0.5,0.6 -0.4,1.5 0.3,2 0.6,0.5 1.5,0.4 2,-0.3 l 8.8,-11.7 3.6,2.7 c 2.5,1.9 6.1,1.4 8,-1.1 l 0.5,-0.7 c 1.9,-2.5 1.4,-6.1 -1.1,-8 l -3.6,-2.7 2.9,-3.9 z m 29.1,-70.3999999 c 1.9,-2.5 5.4,-2.9 7.8,-1.1 2.5,1.9 2.9,5.4 1.1,7.7999999 -1.9,2.5 -5.4,2.9 -7.8,1.1 -2.5,-1.8 -3,-5.3999999 -1.1,-7.7999999 z"
   id="path4576"
   inkscape:connector-curvature="0"
   style="fill:#282829" />











</svg>